<?xml version="1.0" standalone="no"?>
<!DOCTYPE svg PUBLIC "-//W3C//DTD SVG 20010904//EN"
 "http://www.w3.org/TR/2001/REC-SVG-20010904/DTD/svg10.dtd">
<svg version="1.0" xmlns="http://www.w3.org/2000/svg"
 width="192.000000pt" height="192.000000pt" viewBox="0 0 192.000000 192.000000"
 preserveAspectRatio="xMidYMid meet">
<metadata>
Created by potrace 1.14, written by Peter Selinger 2001-2017
</metadata>
<g transform="translate(0.000000,192.000000) scale(0.100000,-0.100000)"
fill="#000000" stroke="none">
<path d="M574 1275 c-9 -21 2 -32 49 -50 35 -13 47 -26 71 -71 l29 -54 47 6
c40 5 48 3 54 -12 9 -25 -13 -40 -71 -49 -63 -9 -93 -22 -93 -39 0 -34 24 -35
165 -5 122 26 140 28 153 15 26 -26 -2 -42 -101 -61 -97 -18 -124 -33 -113
-60 4 -12 16 -16 40 -14 30 3 38 -1 58 -31 44 -65 62 -67 227 -31 152 33 192
38 176 22 -6 -5 -59 -19 -120 -31 -144 -28 -172 -37 -190 -63 -18 -26 -20 -88
-3 -105 20 -20 56 -14 74 13 15 23 15 27 0 49 -18 29 -24 25 87 51 82 18 84
18 69 3 -18 -18 -15 -43 8 -63 44 -40 106 20 66 64 -16 18 -15 19 13 29 43 15
59 53 37 87 -21 32 -32 32 -212 -6 -129 -26 -189 -31 -171 -13 3 3 86 23 184
44 230 50 221 40 239 253 8 91 -6 117 -60 117 -17 -1 -143 -25 -281 -54 -137
-30 -253 -52 -258 -49 -4 2 -16 21 -27 42 -14 29 -31 43 -69 60 -59 25 -70 26
-77 6z m366 -150 c16 -19 0 -41 -35 -47 -44 -9 -63 35 -22 52 32 13 43 12 57
-5z"/>
<path d="M685 915 c-5 -2 -22 -6 -37 -9 -21 -5 -28 -12 -28 -31 0 -21 5 -25
29 -25 16 0 42 5 56 10 43 16 24 70 -20 55z"/>
</g>
</svg>
